Plot:
Leon Bronstein is not your average Montreal West high school student. For one thing, none of his peers can claim to be the reincarnation of early 20th century Soviet iconoclast and Red Army hero, Leon Trotsky. When his father sends Leon to public school as punishment for starting a hunger strike at Papa's clothing factory, Leon quickly lends new meaning to the term 'student union', determined as he is to live out his pre-ordained destiny to the fullest and change the world.


Genre:Comedy
Language:English  http://www.imdb.com/title/tt1295072/
Source:DVD

General
Complete name :The.Trotsky.2009.DvDRip.XviD.Feel-Free
Format : AVI
Format/Info : Audio Video Interleave
File size : 1.34 GiB
Duration : 1h 53mn
Overall bit rate : 1 690 Kbps
Video #0
ID : 0
Format : MPEG-4 Visual
Format profile : AdvancedSimple@L5
Format settings, BVOP : Yes
Format settings, QPel : No
Format settings, GMC : No warppoints
Format settings, Matrix : Default (H.263)
Muxing mode : Packed bitstream
Codec ID : XVID
Codec ID/Hint : XviD
Duration : 1h 53mn
Bit rate : 1 233 Kbps
Width : 688 pixels
Height : 288 pixels
Display aspect ratio : 2.35:1
Frame rate : 23.976 fps
Resolution : 24 bits
Colorimetry : 4:2:0
Scan type : Progressive
Bits/(Pixel*Frame) : 0.259
Stream size : 997 MiB (73%)
Writing library : XviD 1.2.1 (UTC 2008-12-04)
Audio #1
ID : 1
Format : AC-3
Format/Info : Audio Coding 3
Codec ID : 2000
Duration : 1h 53mn
Bit rate mode : Constant
Bit rate : 448 Kbps
Channel(s) : 6 channels
Channel positions : Front: L C R, Surround: L R, LFE
Sampling rate : 48.0 KHz
Stream size : 362 MiB (27%)
Alignment : Split accross interleaves
Interleave, duration : 42 ms (1.00 video frame)
Interleave, preload duration : 500 ms